<svg width="69" height="27" viewBox="0 0 69 27" fill="none" xmlns="http://www.w3.org/2000/svg">
<path d="M14.4 17.3778L11.4222 15.8889L9.93333 14.4L15.1444 17.5639L17.3778 18.1222H20.3556L23.3333 16.6333L25.5667 15.8889L20.3556 18.1222H17.3778L15.1444 17.5639L14.4 17.3778Z" fill="#FFFFF5"/>
<path d="M8.44444 1L7.7 4.72222L6.95556 7.7V9.18889L7.32778 10.3056M20.3556 18.1222H17.3778L15.1444 17.5639M20.3556 18.1222L23.3333 16.6333L25.5667 15.8889M20.3556 18.1222L25.5667 15.8889M20.3556 18.1222V22.5889M25.5667 15.8889L27.0556 12.9111L28.5444 9.93333L30.0333 7.7M25.5667 15.8889L27.8 19.6111M15.1444 17.5639L14.4 17.3778L11.4222 15.8889L9.93333 14.4M15.1444 17.5639L12.9111 22.5889M15.1444 17.5639L9.93333 14.4M9.93333 14.4L9.18889 13.6556L7.7 11.4222L7.32778 10.3056M9.93333 14.4L5.46667 20.3556M1 15.1444L7.32778 10.3056" stroke="#FFFFF5" stroke-width="3"/>
<path d="M54.2564 20.9206L57.3105 19.3803L58.8376 17.8401L53.4929 21.1131L51.2023 21.6907H48.1481L45.094 20.1504L42.8034 19.3803L48.1481 21.6907H51.2023L53.4929 21.1131L54.2564 20.9206Z" fill="#FFFFF5"/>
<path d="M60.3647 3.97803L61.1282 7.8286L61.8917 10.9091V12.4493L61.51 13.6045M48.1481 21.6907H51.2023L53.4929 21.1131M48.1481 21.6907L45.094 20.1504L42.8034 19.3803M48.1481 21.6907L42.8034 19.3803M48.1481 21.6907V26.3114M42.8034 19.3803L41.2764 16.2999L39.7493 13.2194L38.2222 10.9091M42.8034 19.3803L40.5128 23.2309M53.4929 21.1131L54.2564 20.9206L57.3105 19.3803L58.8376 17.8401M53.4929 21.1131L55.7835 26.3114M53.4929 21.1131L58.8376 17.8401M58.8376 17.8401L59.6011 17.07L61.1282 14.7596L61.51 13.6045M58.8376 17.8401L63.4188 24.001M68 18.6102L61.51 13.6045" stroke="#FFFFF5" stroke-width="3"/>
</svg>
