<svg width="67" height="31" viewBox="0 0 67 31" fill="none" xmlns="http://www.w3.org/2000/svg">
<path fill-rule="evenodd" clip-rule="evenodd" d="M15.1078 28.2157C22.1797 28.2157 27.9435 22.6154 28.2063 15.6078H22.3122C22.2608 16.2129 22.1164 16.8074 21.8833 17.3702C21.5862 18.0874 21.1508 18.7391 20.6018 19.2881C20.0529 19.837 19.4012 20.2725 18.6839 20.5696C17.9667 20.8667 17.1979 21.0196 16.4216 21.0196C15.6452 21.0196 14.8765 20.8667 14.1592 20.5696C13.442 20.2725 12.7903 19.837 12.2413 19.2881C11.6924 18.7391 11.2569 18.0874 10.9598 17.3702C10.7267 16.8074 10.5823 16.2129 10.531 15.6078H2.62745V14.6078H28.2063C27.9435 7.60028 22.1797 2 15.1078 2C7.86858 2 2 7.86858 2 15.1078C2 22.3471 7.86858 28.2157 15.1078 28.2157ZM15.1078 30.2157C23.4517 30.2157 30.2157 23.4517 30.2157 15.1078C30.2157 6.76401 23.4517 0 15.1078 0C6.76401 0 0 6.76401 0 15.1078C0 23.4517 6.76401 30.2157 15.1078 30.2157Z" fill="#FFFFF5"/>
<path fill-rule="evenodd" clip-rule="evenodd" d="M51.892 28.2157C58.9639 28.2157 64.7277 22.6154 64.9905 15.6078H56.4689C56.4175 16.2129 56.2732 16.8074 56.0401 17.3702C55.743 18.0874 55.3075 18.7391 54.7586 19.2881C54.2096 19.837 53.5579 20.2725 52.8406 20.5696C52.1234 20.8667 51.3547 21.0196 50.5783 21.0196C49.802 21.0196 49.0332 20.8667 48.316 20.5696C47.5987 20.2725 46.947 19.837 46.3981 19.2881C45.8491 18.7391 45.4136 18.0874 45.1166 17.3702C44.8834 16.8074 44.7391 16.2129 44.6877 15.6078H39.4116V14.6078H64.9905C64.7277 7.60028 58.9639 2 51.892 2C44.6528 2 38.7842 7.86858 38.7842 15.1078C38.7842 22.3471 44.6528 28.2157 51.892 28.2157ZM51.892 30.2157C60.2359 30.2157 66.9999 23.4517 66.9999 15.1078C66.9999 6.76401 60.2359 0 51.892 0C43.5482 0 36.7842 6.76401 36.7842 15.1078C36.7842 23.4517 43.5482 30.2157 51.892 30.2157Z" fill="#FFFFF5"/>
</svg>
